<?xml version="1.0" encoding="UTF-8" standalone="no"?>
<!DOCTYPE svg PUBLIC "-//W3C//DTD SVG 1.1//EN" "http://www.w3.org/Graphics/SVG/1.1/DTD/svg11.dtd">
<svg width="5000.00" height="1000.00" viewBox="0.00 0.00 5000.00 1000.00" xmlns="http://www.w3.org/2000/svg" xmlns:xlink="http://www.w3.org/1999/xlink">
<g stroke-linecap="round" id="Layer_2">
<path d="M100.75,902.98 L4910.44,902.98" fill="none" stroke="rgb(0, 0, 0)" stroke-width="30.00" stroke-opacity="1.00" stroke-linejoin="round"/>
<path d="M93.28,93.28 L4914.17,93.28" fill="none" stroke="rgb(0, 0, 0)" stroke-width="30.00" stroke-opacity="1.00" stroke-linejoin="round"/>
<path d="M298.51,895.52 L298.51,100.75" fill="none" stroke="rgb(0, 0, 0)" stroke-width="30.00" stroke-opacity="1.00" stroke-linejoin="round"/>
<path d="M798.51,899.25 L798.51,108.21" fill="none" stroke="rgb(0, 0, 0)" stroke-width="30.00" stroke-opacity="1.00" stroke-linejoin="round"/>
<path d="M297.00,93.00 L538.50,334.50" fill="none" stroke="rgb(0, 0, 0)" stroke-width="30.00" stroke-opacity="1.00" stroke-linejoin="round"/>
<path d="M795.00,93.00 L549.00,339.00" fill="none" stroke="rgb(0, 0, 0)" stroke-width="30.00" stroke-opacity="1.00" stroke-linejoin="round"/>
<path d="M1299.00,597.00 L1591.50,889.50" fill="none" stroke="rgb(0, 0, 0)" stroke-width="30.00" stroke-opacity="1.00" stroke-linejoin="round"/>
<path d="M1299.00,597.00 L1784.50,95.50" fill="none" stroke="rgb(0, 0, 0)" stroke-width="30.00" stroke-opacity="1.00" stroke-linejoin="round"/>
<path d="M2199.01,903.00 L2199.01,102.00" fill="none" stroke="rgb(0, 0, 0)" stroke-width="30.00" stroke-opacity="1.00" stroke-linejoin="round"/>
<path d="M2802.01,891.00 L2802.01,99.00" fill="none" stroke="rgb(0, 0, 0)" stroke-width="30.00" stroke-opacity="1.00" stroke-linejoin="round"/>
<path d="M2199.01,102.00 L2496.01,399.00" fill="none" stroke="rgb(0, 0, 0)" stroke-width="30.00" stroke-opacity="1.00" stroke-linejoin="round"/>
<path d="M2805.01,105.00 L2506.51,403.50" fill="none" stroke="rgb(0, 0, 0)" stroke-width="30.00" stroke-opacity="1.00" stroke-linejoin="round"/>
<path d="M3195.01,93.00 L3195.01,882.00" fill="none" stroke="rgb(0, 0, 0)" stroke-width="30.00" stroke-opacity="1.00" stroke-linejoin="round"/>
<path d="M3198.01,96.00 L3487.51,385.50" fill="none" stroke="rgb(0, 0, 0)" stroke-width="30.00" stroke-opacity="1.00" stroke-linejoin="round"/>
<path d="M3207.01,585.00 L3483.01,387.00" fill="none" stroke="rgb(0, 0, 0)" stroke-width="30.00" stroke-opacity="1.00" stroke-linejoin="round"/>
<path d="M3336.01,495.00 L3741.01,900.00" fill="none" stroke="rgb(0, 0, 0)" stroke-width="30.00" stroke-opacity="1.00" stroke-linejoin="round"/>
<path d="M4500.01,885.00 L4500.01,105.00" fill="none" stroke="rgb(0, 0, 0)" stroke-width="30.00" stroke-opacity="1.00" stroke-linejoin="round"/>
<path d="M92.00,904.00 L4904.00,904.00" fill="none" stroke="rgb(0, 0, 0)" stroke-width="50.00" stroke-opacity="1.00" stroke-linejoin="round"/>
<path d="M92.00,88.00 L4912.00,88.00" fill="none" stroke="rgb(0, 0, 0)" stroke-width="50.00" stroke-opacity="1.00" stroke-linejoin="round"/>
<path d="M4500.00,88.00 L4500.00,880.00" fill="none" stroke="rgb(0, 0, 0)" stroke-width="50.00" stroke-opacity="1.00" stroke-linejoin="round"/>
<path d="M296.00,88.00 L296.00,884.00" fill="none" stroke="rgb(0, 0, 0)" stroke-width="50.00" stroke-opacity="1.00" stroke-linejoin="round"/>
<path d="M296.00,96.00 L542.00,342.00" fill="none" stroke="rgb(0, 0, 0)" stroke-width="50.00" stroke-opacity="1.00" stroke-linejoin="round"/>
<path d="M548.00,344.00 L784.00,108.00" fill="none" stroke="rgb(0, 0, 0)" stroke-width="50.00" stroke-opacity="1.00" stroke-linejoin="round"/>
<path d="M804.00,88.00 L804.00,872.00" fill="none" stroke="rgb(0, 0, 0)" stroke-width="50.00" stroke-opacity="1.00" stroke-linejoin="round"/>
<path d="M1796.00,92.00 L1288.00,600.00" fill="none" stroke="rgb(0, 0, 0)" stroke-width="50.00" stroke-opacity="1.00" stroke-linejoin="round"/>
<path d="M1288.00,604.00 L1568.00,884.00" fill="none" stroke="rgb(0, 0, 0)" stroke-width="50.00" stroke-opacity="1.00" stroke-linejoin="round"/>
<path d="M2200.00,896.00 L2200.00,108.00" fill="none" stroke="rgb(0, 0, 0)" stroke-width="50.00" stroke-opacity="1.00" stroke-linejoin="round"/>
<path d="M2208.00,104.00 L2504.00,400.00" fill="none" stroke="rgb(0, 0, 0)" stroke-width="50.00" stroke-opacity="1.00" stroke-linejoin="round"/>
<path d="M2796.00,92.00 L2796.00,880.00" fill="none" stroke="rgb(0, 0, 0)" stroke-width="50.00" stroke-opacity="1.00" stroke-linejoin="round"/>
<path d="M2804.00,100.00 L2506.00,398.00" fill="none" stroke="rgb(0, 0, 0)" stroke-width="50.00" stroke-opacity="1.00" stroke-linejoin="round"/>
<path d="M3196.00,900.00 L3196.00,96.00" fill="none" stroke="rgb(0, 0, 0)" stroke-width="50.00" stroke-opacity="1.00" stroke-linejoin="round"/>
<path d="M3212.00,88.00 L3496.00,372.00" fill="none" stroke="rgb(0, 0, 0)" stroke-width="50.00" stroke-opacity="1.00" stroke-linejoin="round"/>
<path d="M3216.00,580.00 L3496.00,368.00" fill="none" stroke="rgb(0, 0, 0)" stroke-width="50.00" stroke-opacity="1.00" stroke-linejoin="round"/>
<path d="M3340.00,492.00 L3730.00,882.00" fill="none" stroke="rgb(0, 0, 0)" stroke-width="50.00" stroke-opacity="1.00" stroke-linejoin="round"/>
</g>
</svg>
