<?xml version="1.0" encoding="UTF-8" standalone="no"?>
<!DOCTYPE svg PUBLIC "-//W3C//DTD SVG 1.1//EN" "http://www.w3.org/Graphics/SVG/1.1/DTD/svg11.dtd">
<svg width="10000.00" height="1000.00" viewBox="0.00 0.00 10000.00 1000.00" xmlns="http://www.w3.org/2000/svg" xmlns:xlink="http://www.w3.org/1999/xlink">
<g stroke-linecap="round" id="Layer_2">
<path d="M102.22,100.00 L4915.56,100.00" fill="none" stroke="rgb(0, 0, 0)" stroke-width="50.00" stroke-opacity="1.00" stroke-linejoin="round"/>
<path d="M102.22,904.44 L3535.56,904.44" fill="none" stroke="rgb(0, 0, 0)" stroke-width="50.00" stroke-opacity="1.00" stroke-linejoin="round"/>
<path d="M600.00,115.56 L600.00,880.00" fill="none" stroke="rgb(0, 0, 0)" stroke-width="50.00" stroke-opacity="1.00" stroke-linejoin="round"/>
<path d="M313.33,477.78 L891.11,208.89" fill="none" stroke="rgb(0, 0, 0)" stroke-width="50.00" stroke-opacity="1.00" stroke-linejoin="round"/>
<path d="M1304.44,117.78 L1304.44,906.67" fill="none" stroke="rgb(0, 0, 0)" stroke-width="50.00" stroke-opacity="1.00" stroke-linejoin="round"/>
<path d="M1317.78,197.78 L1715.56,397.78" fill="none" stroke="rgb(0, 0, 0)" stroke-width="50.00" stroke-opacity="1.00" stroke-linejoin="round"/>
<path d="M1722.22,397.78 L1722.22,897.78" fill="none" stroke="rgb(0, 0, 0)" stroke-width="50.00" stroke-opacity="1.00" stroke-linejoin="round"/>
<path d="M3535.56,904.44 L6442.22,904.44" fill="none" stroke="rgb(0, 0, 0)" stroke-width="50.00" stroke-opacity="1.00" stroke-linejoin="round"/>
<path d="M6428.89,904.44 L8573.33,904.44" fill="none" stroke="rgb(0, 0, 0)" stroke-width="50.00" stroke-opacity="1.00" stroke-linejoin="round"/>
<path d="M8562.22,904.44 L9908.89,904.44" fill="none" stroke="rgb(0, 0, 0)" stroke-width="50.00" stroke-opacity="1.00" stroke-linejoin="round"/>
<path d="M9895.78,99.22 L4913.56,99.22" fill="none" stroke="rgb(0, 0, 0)" stroke-width="50.00" stroke-opacity="1.00" stroke-linejoin="round"/>
<path d="M2297.78,97.78 L2297.78,880.00" fill="none" stroke="rgb(0, 0, 0)" stroke-width="50.00" stroke-opacity="1.00" stroke-linejoin="round"/>
<path d="M2308.89,97.78 L2717.78,304.44" fill="none" stroke="rgb(0, 0, 0)" stroke-width="50.00" stroke-opacity="1.00" stroke-linejoin="round"/>
<path d="M2297.78,553.33 L2711.11,308.89" fill="none" stroke="rgb(0, 0, 0)" stroke-width="50.00" stroke-opacity="1.00" stroke-linejoin="round"/>
<path d="M2466.67,480.00 L2755.56,906.67" fill="none" stroke="rgb(0, 0, 0)" stroke-width="50.00" stroke-opacity="1.00" stroke-linejoin="round"/>
<path d="M3402.22,891.11 L3402.22,122.22" fill="none" stroke="rgb(0, 0, 0)" stroke-width="50.00" stroke-opacity="1.00" stroke-linejoin="round"/>
<path d="M3406.67,100.00 L3708.89,402.22" fill="none" stroke="rgb(0, 0, 0)" stroke-width="50.00" stroke-opacity="1.00" stroke-linejoin="round"/>
<path d="M4300.00,97.78 L4300.00,893.33" fill="none" stroke="rgb(0, 0, 0)" stroke-width="50.00" stroke-opacity="1.00" stroke-linejoin="round"/>
<path d="M4317.78,202.22 L4695.56,400.00" fill="none" stroke="rgb(0, 0, 0)" stroke-width="50.00" stroke-opacity="1.00" stroke-linejoin="round"/>
<path d="M4697.78,397.78 L4697.78,895.56" fill="none" stroke="rgb(0, 0, 0)" stroke-width="50.00" stroke-opacity="1.00" stroke-linejoin="round"/>
<path d="M5397.78,111.11 L5397.78,897.78" fill="none" stroke="rgb(0, 0, 0)" stroke-width="50.00" stroke-opacity="1.00" stroke-linejoin="round"/>
<path d="M5413.33,395.56 L5698.89,110.00" fill="none" stroke="rgb(0, 0, 0)" stroke-width="50.00" stroke-opacity="1.00" stroke-linejoin="round"/>
<path d="M7293.33,108.56 L7291.11,890.78" fill="none" stroke="rgb(0, 0, 0)" stroke-width="50.00" stroke-opacity="1.00" stroke-linejoin="round"/>
<path d="M7802.22,893.33 L7802.22,411.11" fill="none" stroke="rgb(0, 0, 0)" stroke-width="50.00" stroke-opacity="1.00" stroke-linejoin="round"/>
<path d="M7802.22,406.67 L7300.00,208.89" fill="none" stroke="rgb(0, 0, 0)" stroke-width="50.00" stroke-opacity="1.00" stroke-linejoin="round"/>
<path d="M8302.22,113.33 L8302.22,908.89" fill="none" stroke="rgb(0, 0, 0)" stroke-width="50.00" stroke-opacity="1.00" stroke-linejoin="round"/>
<path d="M8317.78,117.78 L8720.00,348.89" fill="none" stroke="rgb(0, 0, 0)" stroke-width="50.00" stroke-opacity="1.00" stroke-linejoin="round"/>
<path d="M8715.56,351.11 L8311.11,537.78" fill="none" stroke="rgb(0, 0, 0)" stroke-width="50.00" stroke-opacity="1.00" stroke-linejoin="round"/>
<path d="M8491.11,477.78 L8704.44,882.22" fill="none" stroke="rgb(0, 0, 0)" stroke-width="50.00" stroke-opacity="1.00" stroke-linejoin="round"/>
<path d="M9295.56,97.78 L9295.56,895.56" fill="none" stroke="rgb(0, 0, 0)" stroke-width="50.00" stroke-opacity="1.00" stroke-linejoin="round"/>
<path d="M9308.89,768.89 L9722.22,484.44" fill="none" stroke="rgb(0, 0, 0)" stroke-width="50.00" stroke-opacity="1.00" stroke-linejoin="round"/>
<path d="M9302.22,240.00 L9713.33,477.78" fill="none" stroke="rgb(0, 0, 0)" stroke-width="50.00" stroke-opacity="1.00" stroke-linejoin="round"/>
</g>
</svg>
